<?xml version="1.0" encoding="UTF-8" standalone="no"?>
<svg
   version="1.0"
   width="104.000000pt"
   height="186.000000pt"
   viewBox="0 0 104.000000 186.000000"
   preserveAspectRatio="xMidYMid meet"
   id="svg24"
   sodipodi:docname="i_mascot.svg"
   inkscape:version="1.2.2 (732a01da63, 2022-12-09)"
   xmlns:inkscape="http://www.inkscape.org/namespaces/inkscape"
   xmlns:sodipodi="http://sodipodi.sourceforge.net/DTD/sodipodi-0.dtd"
   xmlns="http://www.w3.org/2000/svg"
   xmlns:svg="http://www.w3.org/2000/svg">
  <defs
     id="defs28" />
  <sodipodi:namedview
     id="namedview26"
     pagecolor="#ffffff"
     bordercolor="#000000"
     borderopacity="0.25"
     inkscape:showpageshadow="2"
     inkscape:pageopacity="0.0"
     inkscape:pagecheckerboard="0"
     inkscape:deskcolor="#d1d1d1"
     inkscape:document-units="pt"
     showgrid="false"
     inkscape:zoom="3.483871"
     inkscape:cx="34.444444"
     inkscape:cy="82.523148"
     inkscape:window-width="1920"
     inkscape:window-height="1051"
     inkscape:window-x="-9"
     inkscape:window-y="-9"
     inkscape:window-maximized="1"
     inkscape:current-layer="g22" />
  <g
     transform="translate(0.000000,186.000000) scale(0.100000,-0.100000)"
     fill="#000000"
     stroke="none"
     id="g22">
    <path
       d="M508 1673 c-37 -9 -16 -20 30 -15 36 3 51 0 61 -12 15 -18 31 -21 31 -6 0 25 -75 46 -122 33z"
       id="path16" />
    <path
       d="M278 1654 c-27 -14 -57 -54 -41 -54 4 0 19 12 32 25 16 18 34 25 60 25 27 0 32 3 21 10 -21 13 -40 12 -72 -6z"
       id="path18" />
    <path
       id="path20"
       d="M 544.02832,1608.6475 C 512.62216,1606.4443 485.99994,1571.7451 465,1504.9951 c -4.99999,-16 -10.99518,-10.9892 -34.99512,31.0108 -35.99988,63.9997 -81.00305,86.9882 -123.00293,62.9882 C 260.0021,1571.9944 246.00107,1460.9997 281.00098,1395 c 10.99997,-22 21.99414,-47.0049 23.99414,-55.0049 15.99994,-57.9997 25.00393,-102 29.0039,-150 5,-53.9997 4.00669,-55 -42.99316,-105 -51.99985,-53.9997 -87.00681,-130.99229 -77.00684,-166.99217 3,-12.99997 27.99423,-49.00986 53.99414,-80.00977 28.99994,-32.99988 55.00296,-75.99713 63.00293,-101.99707 C 339.99606,703.99621 350.00687,690 362.00684,690 c 15.99994,0 17.98828,-9.99923 17.98828,-78.99902 0,-75.99979 -23.99127,-331.00308 -35.99121,-378.00293 -4,-14.99997 -32.00794,-40.00202 -73.00782,-67.00196 -35.99988,-23.99991 -73.99026,-52.99905 -84.99023,-63.99902 -16.99994,-19.99994 -17.00678,-21.993182 -2.00684,-27.993164 26.99994,-9.99997 72.99432,15.001151 128.99414,71.000974 l 53.0127,50.99121 22.99805,135 c 11.99994,73.99979 24.99707,142.01075 26.99707,151.01075 4.99997,15.99994 44.99248,31.9942 136.99218,53.99414 l 28.00782,6.00586 -3.00293,-143.0127 L 574.99512,255 630,236.00098 c 62.99982,-21.99994 200.9971,-27.99411 206.99707,-8.99414 5,14.99994 -44.00033,29.98931 -150,43.98925 l -87.99316,11.99707 5.99121,41.00098 C 618.99506,431.99381 630,665.99474 630,863.99414 v 219.00876 l 59.00391,-7.0019 58.98925,-7.002 43.00782,48.999 c 58.99982,65 95.99529,91.0069 154.99511,107.0069 26.99994,7 66.26261,15.9028 55.26261,16.9028 -13.99996,2 -37.49264,-0.5765 -16.25382,8.0874 l 28.85832,8.3787 -32.85734,0.6301 c -32.99991,1 -33.99994,1.9961 -15,15.9961 25.99991,20 0.98721,19.0039 -38.0127,-0.9961 -27.99991,-15 -29.99023,-15 -24.99023,0 10.99997,27 -11.99713,17.999 -26.99707,-11.001 -7.99997,-16 -41.004,-54.0012 -74.00391,-86.0009 -58.99982,-58 -60.00405,-59.002 -104.0039,-52.002 -24.99994,4 -49.9971,10 -56.99707,15 -29.99991,18 -59.14185,185.0257 -23.53083,246.7757 28.4652,67.6736 9.53165,184.2292 -40.4682,213.2292 -11.49997,6.5 -22.50491,9.3769 -32.97363,8.6426 z m -12.40723,-480.0293 c 6.625,-1.875 8.37598,-8.1182 5.37598,-18.6182 -3,-11 1.00882,-41.002 9.00879,-67.002 14.99994,-50.9997 17.99506,-141.00099 4.99512,-161.00093 -6,-9.99997 -11.00199,-9.00092 -22.00196,3.99902 -9.99997,12.99997 -13.00097,40.008 -11.00097,103.00782 2.99997,77.99969 1.99701,87.99609 -18.00293,105.99609 -19.99994,18 -19.98825,20.001 -2.98828,26.001 16.49994,7 27.98928,9.4922 34.61425,7.6172 z M 345,1082.0068 l 7.00195,-33.0029 c 4,-19 10.00391,-86.00408 14.00391,-149.0039 l 6.9873,-115.00488 -33.99902,26.00097 c -17.99994,14.99997 -50.99713,46.99716 -71.99707,71.99707 L 237.89751,928.37372 244.99512,960 c 8.99997,17.99994 35.00787,53.0071 58.00781,77.0068 z"
       sodipodi:nodetypes="cccccccccccsscccccccccccccccccscccccccccccccccccccscccccscscccccccccc" />
  </g>
</svg>
