<?xml version="1.0" encoding="UTF-8" standalone="no"?>
<svg
   version="1.0"
   width="184.000000pt"
   height="245.000000pt"
   viewBox="0 0 184.000000 245.000000"
   preserveAspectRatio="xMidYMid meet"
   id="svg20"
   sodipodi:docname="o_mascot.svg"
   inkscape:version="1.2.2 (732a01da63, 2022-12-09)"
   xmlns:inkscape="http://www.inkscape.org/namespaces/inkscape"
   xmlns:sodipodi="http://sodipodi.sourceforge.net/DTD/sodipodi-0.dtd"
   xmlns="http://www.w3.org/2000/svg"
   xmlns:svg="http://www.w3.org/2000/svg">
  <defs
     id="defs24" />
  <sodipodi:namedview
     id="namedview22"
     pagecolor="#ffffff"
     bordercolor="#000000"
     borderopacity="0.25"
     inkscape:showpageshadow="2"
     inkscape:pageopacity="0.0"
     inkscape:pagecheckerboard="0"
     inkscape:deskcolor="#d1d1d1"
     inkscape:document-units="pt"
     showgrid="false"
     inkscape:zoom="3.7404506"
     inkscape:cx="252.37601"
     inkscape:cy="178.72178"
     inkscape:window-width="1920"
     inkscape:window-height="1051"
     inkscape:window-x="-9"
     inkscape:window-y="-9"
     inkscape:window-maximized="1"
     inkscape:current-layer="g18" />
  <g
     transform="translate(0.000000,245.000000) scale(0.100000,-0.100000)"
     fill="#000000"
     stroke="none"
     id="g18">
    <path
       d="M617 2326 c-77 -28 -181 -135 -162 -166 11 -18 24 -11 67 37 46 49 125 93 170 93 32 0 44 15 28 35 -15 18 -53 18 -103 1z"
       id="path14" />
    <path
       d="m 1066.7131,2332.7303 c 71.0402,-28 166.9906,-135 149.4612,-166 -10.1486,-18 -22.1424,-11 -61.8142,37 -42.4396,49 -115.325,93 -156.84205,93 -29.5232,0 -40.5944,15 -25.8328,35 13.839,18 48.89785,18 95.02785,1 z"
       id="path14-8"
       style="stroke-width:0.960521" />
    <path
       d="M 834.0515,2041.7841 799,2077 c -48,51 -108,67 -179,49 -101,-26 -170,-116 -170,-221 0,-51 25,-121 51,-142 13,-10 4,-24 -56,-86 -38,-41 -97,-91 -130,-112 -128,-81 -231,-223 -255,-352 -13,-74 2,-158 38,-202 37,-46 123,-98 176,-106 36,-6 45,-13 71,-57 44,-73 158,-177 245,-222 41,-22 78,-44 82,-50 9,-13 10,-148 2,-237 l -7,-66 -71,-28 C 493,206 388,142 392,122 c 11,-56 258,10 333,88 28,29 38,72 67,262 l 11,78 h 54 53 v -57 c 0,-77 16,-219 30,-267 33,-111 194,-195 312,-163 31,8 48,49 31,76 -5,9 -68,38 -139,65 -71,28 -131,51 -133,53 -6,4 19,271 27,294 4,10 43,36 87,58 132,66 246,176 321,307 27,49 47,69 93,98 69,42 130,107 162,174 32,65 33,177 2,244 -46,100 -170,199 -313,249 -36,12 -99,45 -141,72 l -75,49 23,46 c 92.1376,286.7698 -257.13499,421.7212 -362.9485,193.7841 z M 990.02042,1750 c -46,0 -65.02042,4 -100.02042,37 -59.74923,101.3405 -61.5742,269.22 55,330 344.0885,37.0605 260.5108,-392.8734 45.02042,-367 z M 830,1927 c -2.82771,-93.967 -19.47481,-136.5499 -90,-172 -131,-66 -261,7 -262,149 0,94 44,163 120,186 136.49294,28.4369 230.19149,-42.1322 232,-163 z m 665,-383 c 169,-112 199,-261 80,-391 l -43,-48 5,100 c 6,122 -12,211 -62,302 -19,35 -31,63 -27,63 4,0 25,-12 47,-26 z m -459,-34 c 79,-39 139,-97 172,-168 22,-47 27,-71 27,-137 0,-72 -4,-89 -34,-150 -43,-87 -121,-167 -197,-202 -106,-48 -239,-30 -341,47 -175,132 -171,392 8,569 95,93 227,108 365,41 z M 274,1338 c -15,-84 -18,-246 -5,-300 5,-21 7,-38 5,-38 -3,0 -21,9 -42,19 -130,67 -131,200 -5,333 31,32 57,58 58,58 1,0 -4,-33 -11,-72 z"
       id="path16"
       sodipodi:nodetypes="cccsccccccccccccccccccsccccccscccccccccccccccccccccccscccscccccccsccsc" />
  </g>
</svg>
